<?xml version="1.0" encoding="iso-8859-1"?>
<!-- Generator: Adobe Illustrator 19.0.0, SVG Export Plug-In . SVG Version: 6.00 Build 0)  -->
<svg version="1.1" id="Capa_1" xmlns="http://www.w3.org/2000/svg" xmlns:xlink="http://www.w3.org/1999/xlink" x="0px" y="0px"
	 viewBox="0 0 325.228 325.228" style="enable-background:new 0 0 325.228 325.228;" xml:space="preserve">
<path style="fill:#4299BF;" d="M318.328,214.214l-4.8-68c-4-35.6-32.8-63.2-67.6-63.2h-166.8c-34.8,0-63.6,27.6-67.6,63.2l-4.8,68
	c0,0-2.8,78.4,10,91.6c5.6,6,22.8,12,38.4-1.2c12.4-10.4,30.4-30.8,49.2-77.2h117.2c18.8,46,36.8,66.4,49.2,77.2
	c15.6,13.2,32.8,7.2,38.4,1.2C321.128,292.214,318.328,214.214,318.328,214.214z"/>
<g>
	<polygon style="fill:#A1EDFF;" points="111.128,158.214 85.528,158.214 85.528,132.614 64.328,132.614 64.328,158.214 
		38.328,158.214 38.328,179.414 64.328,179.414 64.328,205.414 85.528,205.414 85.528,179.414 111.128,179.414 	"/>
	<circle style="fill:#A1EDFF;" cx="215.528" cy="165.814" r="14.4"/>
	<circle style="fill:#A1EDFF;" cx="276.728" cy="165.814" r="14.4"/>
</g>
<g>
	<circle style="fill:#006D93;" cx="245.928" cy="196.214" r="14.4"/>
	<circle style="fill:#006D93;" cx="245.928" cy="135.414" r="14.4"/>
</g>
<g>
	<path style="fill:#000C1F;" d="M34.328,318.614c8.8,0,17.2-3.2,24.8-9.6c18.4-16,34.8-40.8,49.2-75.6h108.4
		c14.4,34.8,30.8,59.6,49.2,75.6c7.2,6.4,16,9.6,24.8,9.6l0,0c8.8,0,17.6-3.2,22.4-8.4c14-14.4,12.4-82.8,11.6-96.8l-5.2-68.4
		c-4.8-39.2-36.4-69.2-74-69.2h-76.8v-14.8c0,0,0-2.4,2.4-4.4c2.8-3.2,8.8-4.8,16.4-4.8h55.6c9.6,0,15.6-3.6,18.8-6.4
		c4.4-4,6.8-9.6,6.8-15.6c0-11.2-9.2-23.2-24.8-23.2h-149.2c-3.6,0-6.4,2.8-6.4,6.4s2.8,6.4,6.4,6.4h148.8c7.6,0,11.6,4.8,11.6,10
		c0,1.6-0.4,4-2.4,5.6c-2,2-5.6,3.2-10,3.2h-55.2c-11.6,0-20,2.8-25.6,8.8c-6,6-6,13.2-6,13.6v14.8h-76.8c-37.6,0-69.6,29.6-74,69.2
		l-4.8,68.4c-0.4,13.6-2.4,81.6,11.6,96.4C16.728,315.414,25.528,318.614,34.328,318.614z M132.728,89.414h59.6v15.2
		c0,4.4-3.6,7.6-7.6,7.6h-44c-4.4,0-7.6-3.6-7.6-7.6v-15.2H132.728z M13.128,214.614l4.8-68c4-32.8,30-57.6,61.2-57.6h40.4v15.2
		c0,11.6,9.2,20.8,20.8,20.8h44c11.6,0,20.8-9.2,20.8-20.8v-15.2h40.4c30.8,0,57.2,24.8,61.2,57.2l4.8,68c1.2,36.4-1.2,80-8,86.8
		c-1.6,2-6.8,4.4-13.2,4.4c-5.6,0-11.2-2-16-6.4c-17.6-15.2-33.2-39.6-47.2-74.4c-1.2-2.4-3.6-4-6-4h-117.2c-2.8,0-5.2,1.6-6,4
		c-14,35.2-29.6,59.6-47.2,74.4c-4.8,4.4-10.4,6.4-16,6.4c-6.4,0-11.2-2.8-13.2-4.4C14.328,294.214,11.528,250.614,13.128,214.614z"
		/>
	<path style="fill:#000C1F;" d="M38.328,186.214h19.2v19.2c0,3.6,2.8,6.4,6.4,6.4h21.2c3.6,0,6.4-2.8,6.4-6.4v-19.2h19.2
		c3.6,0,6.4-2.8,6.4-6.4v-21.2c0-3.6-2.8-6.4-6.4-6.4h-19.2v-19.2c0-3.6-2.8-6.4-6.4-6.4h-21.2c-3.6,0-6.4,2.8-6.4,6.4v19.2h-19.2
		c-3.6,0-6.4,2.8-6.4,6.4v21.2C31.928,183.014,34.728,186.214,38.328,186.214z M45.128,165.014h19.2c3.6,0,6.4-2.8,6.4-6.4v-19.6h8
		v19.2c0,3.6,2.8,6.4,6.4,6.4h19.2v8h-19.2c-3.6,0-6.4,2.8-6.4,6.4v19.2h-8v-19.2c0-3.6-2.8-6.4-6.4-6.4h-19.2V165.014z"/>
	<path style="fill:#000C1F;" d="M215.528,186.614c11.6,0,20.8-9.2,20.8-20.8c0-11.6-9.2-20.8-20.8-20.8c-11.6,0-20.8,9.2-20.8,20.8
		C194.728,177.414,203.928,186.614,215.528,186.614z M215.528,158.214c4.4,0,7.6,3.6,7.6,7.6c0,4.4-3.6,7.6-7.6,7.6
		c-4.4,0-7.6-3.6-7.6-7.6C207.928,161.414,211.128,158.214,215.528,158.214z"/>
	<path style="fill:#000C1F;" d="M255.528,165.814c0,11.6,9.2,20.8,20.8,20.8c11.6,0,20.8-9.2,20.8-20.8c0-11.6-9.2-20.8-20.8-20.8
		C265.128,145.014,255.528,154.214,255.528,165.814z M276.728,158.214c4.4,0,7.6,3.6,7.6,7.6c0,4.4-3.6,7.6-7.6,7.6
		c-4.4,0-7.6-3.6-7.6-7.6C268.728,161.414,272.328,158.214,276.728,158.214z"/>
	<path style="fill:#000C1F;" d="M245.928,175.414c-11.6,0-20.8,9.2-20.8,20.8c0,11.6,9.2,20.8,20.8,20.8c11.6,0,20.8-9.2,20.8-20.8
		C267.128,184.614,257.528,175.414,245.928,175.414z M245.928,204.214c-4.4,0-7.6-3.6-7.6-7.6c0-4.4,3.6-7.6,7.6-7.6
		c4.4,0,7.6,3.6,7.6,7.6C253.928,200.614,250.328,204.214,245.928,204.214z"/>
	<path style="fill:#000C1F;" d="M245.928,114.214c-11.6,0-20.8,9.2-20.8,20.8s9.2,20.8,20.8,20.8c11.6,0,20.8-9.2,20.8-20.8
		C267.128,123.814,257.528,114.214,245.928,114.214z M245.928,143.014c-4.4,0-7.6-3.6-7.6-7.6c0-4.4,3.6-7.6,7.6-7.6
		c4.4,0,7.6,3.6,7.6,7.6C253.928,139.414,250.328,143.014,245.928,143.014z"/>
</g>
<g>
</g>
<g>
</g>
<g>
</g>
<g>
</g>
<g>
</g>
<g>
</g>
<g>
</g>
<g>
</g>
<g>
</g>
<g>
</g>
<g>
</g>
<g>
</g>
<g>
</g>
<g>
</g>
<g>
</g>
</svg>
