<?xml version="1.0" encoding="UTF-8" standalone="no"?>
<!-- Generator: Adobe Illustrator 19.0.0, SVG Export Plug-In . SVG Version: 6.00 Build 0)  -->

<svg
   xmlns:dc="http://purl.org/dc/elements/1.1/"
   xmlns:cc="http://creativecommons.org/ns#"
   xmlns:rdf="http://www.w3.org/1999/02/22-rdf-syntax-ns#"
   xmlns:svg="http://www.w3.org/2000/svg"
   xmlns="http://www.w3.org/2000/svg"
   xmlns:sodipodi="http://sodipodi.sourceforge.net/DTD/sodipodi-0.dtd"
   xmlns:inkscape="http://www.inkscape.org/namespaces/inkscape"
   version="1.1"
   id="Capa_1"
   x="0px"
   y="0px"
   viewBox="0 0 511.941 511.941"
   style="enable-background:new 0 0 511.941 511.941;"
   xml:space="preserve"
   sodipodi:docname="keyboard.svg"
   inkscape:version="0.92.5 (2060ec1f9f, 2020-04-08)"><metadata
   id="metadata537"><rdf:RDF><cc:Work
       rdf:about=""><dc:format>image/svg+xml</dc:format><dc:type
         rdf:resource="http://purl.org/dc/dcmitype/StillImage" /></cc:Work></rdf:RDF></metadata><defs
   id="defs535" /><sodipodi:namedview
   pagecolor="#ffffff"
   bordercolor="#666666"
   borderopacity="1"
   objecttolerance="10"
   gridtolerance="10"
   guidetolerance="10"
   inkscape:pageopacity="0"
   inkscape:pageshadow="2"
   inkscape:window-width="1920"
   inkscape:window-height="1056"
   id="namedview533"
   showgrid="false"
   inkscape:zoom="0.65193918"
   inkscape:cx="-185.57281"
   inkscape:cy="184.70725"
   inkscape:window-x="0"
   inkscape:window-y="0"
   inkscape:window-maximized="1"
   inkscape:current-layer="Capa_1" />
<path
   style="fill:#4299bf;fill-opacity:1"
   d="M507.943,459.947c0,8.796-7.203,15.998-15.999,15.998H19.998c-8.804,0-15.999-7.202-15.999-15.998  V259.97c0-8.796,7.195-15.998,15.999-15.998h471.945c8.796,0,15.999,7.202,15.999,15.998L507.943,459.947L507.943,459.947z"
   id="path2" />
<path
   style="fill:#FFFFFF;"
   d="M491.944,243.972H19.998c-8.804,0-15.999,7.202-15.999,15.998v7.999  c0-8.796,7.195-15.998,15.999-15.998h471.945c8.796,0,15.999,7.202,15.999,15.998v-7.999  C507.943,251.174,500.74,243.972,491.944,243.972z"
   id="path4" />
<g
   style="opacity:0.2;"
   id="g8">
	<path
   d="M19.998,475.945h471.945c8.804,0,15.999-7.202,15.999-15.998v-7.999c0,8.796-7.195,15.999-15.999,15.999H19.998   c-8.796,0-15.999-7.203-15.999-15.999v7.999C4,468.742,11.202,475.945,19.998,475.945z"
   id="path6" />
</g>
<g
   style="opacity:0.2;"
   id="g158">
	<path
   d="M27.997,331.961h15.998c2.21,0,4-1.796,4-3.999v-15.998c0-2.219-1.789-4-4-4H27.997c-2.211,0-4,1.781-4,4v15.998   C23.997,330.165,25.786,331.961,27.997,331.961z"
   id="path10" />
	<path
   d="M59.993,331.961h15.998c2.211,0,4-1.796,4-3.999v-15.998c0-2.219-1.789-4-4-4H59.993c-2.211,0-4,1.781-4,4v15.998   C55.994,330.165,57.783,331.961,59.993,331.961z"
   id="path12" />
	<path
   d="M91.99,331.961h15.998c2.211,0,4-1.796,4-3.999v-15.998c0-2.219-1.789-4-4-4H91.99c-2.21,0-3.999,1.781-3.999,4v15.998   C87.991,330.165,89.779,331.961,91.99,331.961z"
   id="path14" />
	<path
   d="M123.986,331.961h15.998c2.21,0,4-1.796,4-3.999v-15.998c0-2.219-1.789-4-4-4h-15.998c-2.21,0-4,1.781-4,4v15.998   C119.987,330.165,121.776,331.961,123.986,331.961z"
   id="path16" />
	<path
   d="M155.983,331.961h15.998c2.21,0,4-1.796,4-3.999v-15.998c0-2.219-1.789-4-4-4h-15.998c-2.211,0-4,1.781-4,4v15.998   C151.983,330.165,153.772,331.961,155.983,331.961z"
   id="path18" />
	<path
   d="M187.979,331.961h15.998c2.211,0,4-1.796,4-3.999v-15.998c0-2.219-1.789-4-4-4h-15.998c-2.211,0-4,1.781-4,4v15.998   C183.979,330.165,185.768,331.961,187.979,331.961z"
   id="path20" />
	<path
   d="M219.975,331.961h15.998c2.211,0,4-1.796,4-3.999v-15.998c0-2.219-1.789-4-4-4h-15.998c-2.21,0-3.999,1.781-3.999,4v15.998   C215.976,330.165,217.764,331.961,219.975,331.961z"
   id="path22" />
	<path
   d="M251.971,331.961h15.999c2.21,0,3.999-1.796,3.999-3.999v-15.998c0-2.219-1.789-4-3.999-4h-15.999c-2.21,0-4,1.781-4,4   v15.998C247.972,330.165,249.761,331.961,251.971,331.961z"
   id="path24" />
	<path
   d="M283.968,331.961h15.998c2.211,0,4-1.796,4-3.999v-15.998c0-2.219-1.789-4-4-4h-15.998c-2.211,0-4,1.781-4,4v15.998   C279.968,330.165,281.757,331.961,283.968,331.961z"
   id="path26" />
	<path
   d="M315.964,331.961h15.998c2.211,0,4-1.796,4-3.999v-15.998c0-2.219-1.789-4-4-4h-15.998c-2.211,0-4,1.781-4,4v15.998   C311.964,330.165,313.753,331.961,315.964,331.961z"
   id="path28" />
	<path
   d="M347.96,331.961h15.998c2.211,0,4-1.796,4-3.999v-15.998c0-2.219-1.789-4-4-4H347.96c-2.211,0-3.999,1.781-3.999,4v15.998   C343.961,330.165,345.749,331.961,347.96,331.961z"
   id="path30" />
	<path
   d="M379.956,331.961h15.998c2.211,0,4-1.796,4-3.999v-15.998c0-2.219-1.789-4-4-4h-15.998c-2.21,0-3.999,1.781-3.999,4v15.998   C375.957,330.165,377.746,331.961,379.956,331.961z"
   id="path32" />
	<path
   d="M411.953,331.961h15.998c2.21,0,3.999-1.796,3.999-3.999v-15.998c0-2.219-1.789-4-3.999-4h-15.998c-2.211,0-4,1.781-4,4   v15.998C407.953,330.165,409.742,331.961,411.953,331.961z"
   id="path34" />
	<path
   d="M43.995,435.949H27.997c-2.211,0-4,1.781-4,4v15.998c0,2.202,1.789,3.999,4,3.999h15.998c2.21,0,4-1.797,4-3.999v-15.998   C47.995,437.731,46.206,435.949,43.995,435.949z"
   id="path36" />
	<path
   d="M75.992,435.949H59.993c-2.211,0-4,1.781-4,4v15.998c0,2.202,1.789,3.999,4,3.999h15.998c2.211,0,4-1.797,4-3.999v-15.998   C79.991,437.731,78.202,435.949,75.992,435.949z"
   id="path38" />
	<path
   d="M107.988,435.949H91.99c-2.21,0-3.999,1.781-3.999,4v15.998c0,2.202,1.789,3.999,3.999,3.999h15.998   c2.211,0,4-1.797,4-3.999v-15.998C111.988,437.731,110.199,435.949,107.988,435.949z"
   id="path40" />
	<path
   d="M139.984,435.949h-15.998c-2.21,0-4,1.781-4,4v15.998c0,2.202,1.789,3.999,4,3.999h15.998c2.21,0,4-1.797,4-3.999v-15.998   C143.984,437.731,142.195,435.949,139.984,435.949z"
   id="path42" />
	<path
   d="M355.959,435.949H155.983c-2.211,0-4,1.781-4,4v15.998c0,2.202,1.789,3.999,4,3.999H355.96c2.211,0,4-1.797,4-3.999   v-15.998C359.959,437.731,358.17,435.949,355.959,435.949z"
   id="path44" />
	<path
   d="M419.952,435.949h-15.998c-2.211,0-4,1.781-4,4v15.998c0,2.202,1.789,3.999,4,3.999h15.998   c2.211,0,3.999-1.797,3.999-3.999v-15.998C423.951,437.731,422.163,435.949,419.952,435.949z"
   id="path46" />
	<path
   d="M451.949,435.949h-15.998c-2.211,0-4,1.781-4,4v15.998c0,2.202,1.789,3.999,4,3.999h15.998c2.211,0,4-1.797,4-3.999   v-15.998C455.949,437.731,454.159,435.949,451.949,435.949z"
   id="path48" />
	<path
   d="M483.945,435.949h-15.998c-2.211,0-4,1.781-4,4v15.998c0,2.202,1.789,3.999,4,3.999h15.998c2.211,0,4-1.797,4-3.999   v-15.998C487.945,437.731,486.156,435.949,483.945,435.949z"
   id="path50" />
	<path
   d="M107.988,371.957H91.99c-2.21,0-3.999,1.78-3.999,3.999v15.998c0,2.203,1.789,4,3.999,4h15.998c2.211,0,4-1.797,4-4   v-15.998C111.988,373.738,110.199,371.957,107.988,371.957z"
   id="path52" />
	<path
   d="M27.997,395.954h47.994c2.211,0,4-1.797,4-4v-15.998c0-2.219-1.789-3.999-4-3.999H27.997c-2.211,0-4,1.78-4,3.999v15.998   C23.997,394.158,25.786,395.954,27.997,395.954z"
   id="path54" />
	<path
   d="M139.984,371.957h-15.998c-2.21,0-4,1.78-4,3.999v15.998c0,2.203,1.789,4,4,4h15.998c2.21,0,4-1.797,4-4v-15.998   C143.984,373.738,142.195,371.957,139.984,371.957z"
   id="path56" />
	<path
   d="M175.98,375.956c0-2.219-1.789-3.999-4-3.999h-15.998c-2.211,0-4,1.78-4,3.999v15.998c0,2.203,1.789,4,4,4h15.998   c2.21,0,4-1.797,4-4V375.956z"
   id="path58" />
	<path
   d="M207.976,391.954v-15.998c0-2.219-1.789-3.999-4-3.999h-15.998c-2.211,0-4,1.78-4,3.999v15.998c0,2.203,1.789,4,4,4h15.998   C206.188,395.954,207.976,394.158,207.976,391.954z"
   id="path60" />
	<path
   d="M239.973,391.954v-15.998c0-2.219-1.789-3.999-4-3.999h-15.998c-2.21,0-3.999,1.78-3.999,3.999v15.998   c0,2.203,1.789,4,3.999,4h15.998C238.184,395.954,239.973,394.158,239.973,391.954z"
   id="path62" />
	<path
   d="M271.969,391.954v-15.998c0-2.219-1.789-3.999-3.999-3.999h-15.999c-2.21,0-4,1.78-4,3.999v15.998c0,2.203,1.789,4,4,4   h15.999C270.18,395.954,271.969,394.158,271.969,391.954z"
   id="path64" />
	<path
   d="M303.966,391.954v-15.998c0-2.219-1.789-3.999-4-3.999h-15.998c-2.211,0-4,1.78-4,3.999v15.998c0,2.203,1.789,4,4,4h15.998   C302.177,395.954,303.966,394.158,303.966,391.954z"
   id="path66" />
	<path
   d="M335.962,391.954v-15.998c0-2.219-1.789-3.999-4-3.999h-15.998c-2.211,0-4,1.78-4,3.999v15.998c0,2.203,1.789,4,4,4h15.998   C334.173,395.954,335.962,394.158,335.962,391.954z"
   id="path68" />
	<path
   d="M367.958,375.956c0-2.219-1.789-3.999-4-3.999H347.96c-2.211,0-3.999,1.78-3.999,3.999v15.998c0,2.203,1.788,4,3.999,4   h15.998c2.211,0,4-1.797,4-4V375.956z"
   id="path70" />
	<path
   d="M399.954,375.956c0-2.219-1.789-3.999-4-3.999h-15.998c-2.21,0-3.999,1.78-3.999,3.999v15.998c0,2.203,1.789,4,3.999,4   h15.998c2.211,0,4-1.797,4-4V375.956z"
   id="path72" />
	<path
   d="M431.95,375.956c0-2.219-1.789-3.999-3.999-3.999h-15.998c-2.211,0-4,1.78-4,3.999v15.998c0,2.203,1.789,4,4,4h15.998   c2.21,0,3.999-1.797,3.999-4V375.956z"
   id="path74" />
	<path
   d="M79.991,359.958c0,2.203,1.789,4,4,4h15.998c2.211,0,4-1.797,4-4V343.96c0-2.219-1.789-4-4-4H83.991c-2.21,0-4,1.781-4,4   V359.958z"
   id="path76" />
	<path
   d="M111.988,359.958c0,2.203,1.789,4,4,4h15.998c2.21,0,4-1.797,4-4V343.96c0-2.219-1.789-4-4-4h-15.998c-2.21,0-4,1.781-4,4   V359.958z"
   id="path78" />
	<path
   d="M143.984,359.958c0,2.203,1.789,4,4,4h15.998c2.21,0,3.999-1.797,3.999-4V343.96c0-2.219-1.789-4-3.999-4h-15.998   c-2.211,0-4,1.781-4,4V359.958z"
   id="path80" />
	<path
   d="M175.98,359.958c0,2.203,1.789,4,4,4h15.998c2.211,0,4-1.797,4-4V343.96c0-2.219-1.789-4-4-4H179.98c-2.211,0-4,1.781-4,4   V359.958z"
   id="path82" />
	<path
   d="M207.976,359.958c0,2.203,1.789,4,4,4h15.998c2.211,0,4-1.797,4-4V343.96c0-2.219-1.789-4-4-4h-15.998c-2.21,0-4,1.781-4,4   V359.958z"
   id="path84" />
	<path
   d="M239.973,359.958c0,2.203,1.789,4,4,4h15.998c2.211,0,4-1.797,4-4V343.96c0-2.219-1.789-4-4-4h-15.998c-2.21,0-4,1.781-4,4   V359.958z"
   id="path86" />
	<path
   d="M271.969,359.958c0,2.203,1.789,4,4,4h15.998c2.21,0,3.999-1.797,3.999-4V343.96c0-2.219-1.789-4-3.999-4h-15.998   c-2.211,0-4,1.781-4,4V359.958z"
   id="path88" />
	<path
   d="M303.966,359.958c0,2.203,1.788,4,3.999,4h15.998c2.211,0,3.999-1.797,3.999-4V343.96c0-2.219-1.788-4-3.999-4h-15.998   c-2.211,0-3.999,1.781-3.999,4V359.958z"
   id="path90" />
	<path
   d="M335.962,359.958c0,2.203,1.789,4,3.999,4h15.998c2.211,0,4-1.797,4-4V343.96c0-2.219-1.789-4-4-4h-15.998   c-2.21,0-3.999,1.781-3.999,4V359.958z"
   id="path92" />
	<path
   d="M367.958,359.958c0,2.203,1.789,4,4,4h15.998c2.21,0,3.999-1.797,3.999-4V343.96c0-2.219-1.789-4-3.999-4h-15.998   c-2.211,0-4,1.781-4,4V359.958z"
   id="path94" />
	<path
   d="M399.954,359.958c0,2.203,1.789,4,4,4h15.998c2.211,0,3.999-1.797,3.999-4V343.96c0-2.219-1.788-4-3.999-4h-15.998   c-2.211,0-4,1.781-4,4V359.958z"
   id="path96" />
	<path
   d="M431.95,359.958c0,2.203,1.789,4,4,4h15.998c2.211,0,4-1.797,4-4V343.96c0-2.219-1.789-4-4-4H435.95c-2.211,0-4,1.781-4,4   V359.958z"
   id="path98" />
	<path
   d="M483.945,339.96h-15.998c-2.211,0-4,1.781-4,4v15.998c0,2.203,1.789,4,4,4h15.998c2.211,0,4-1.797,4-4V343.96   C487.945,341.741,486.156,339.96,483.945,339.96z"
   id="path100" />
	<path
   d="M483.945,307.964H443.95c-2.211,0-3.999,1.781-3.999,4v15.998c0,2.203,1.788,3.999,3.999,3.999h39.995   c2.211,0,4-1.796,4-3.999v-15.998C487.945,309.745,486.156,307.964,483.945,307.964z"
   id="path102" />
	<path
   d="M483.945,371.957H443.95c-2.211,0-3.999,1.78-3.999,3.999v15.998c0,2.203,1.788,4,3.999,4h39.995c2.211,0,4-1.797,4-4   v-15.998C487.945,373.738,486.156,371.957,483.945,371.957z"
   id="path104" />
	<path
   d="M27.997,363.958h39.995c2.211,0,4-1.797,4-4V343.96c0-2.219-1.789-4-4-4H27.997c-2.211,0-4,1.781-4,4v15.998   C23.997,362.161,25.786,363.958,27.997,363.958z"
   id="path106" />
	<path
   d="M135.985,423.951v-15.998c0-2.218-1.789-3.999-4-3.999h-15.998c-2.21,0-4,1.781-4,3.999v15.998c0,2.203,1.789,4,4,4h15.998   C134.196,427.951,135.985,426.154,135.985,423.951z"
   id="path108" />
	<path
   d="M167.981,423.951v-15.998c0-2.218-1.789-3.999-3.999-3.999h-15.998c-2.211,0-4,1.781-4,3.999v15.998c0,2.203,1.789,4,4,4   h15.998C166.192,427.951,167.981,426.154,167.981,423.951z"
   id="path110" />
	<path
   d="M179.98,427.951h15.998c2.211,0,4-1.797,4-4v-15.998c0-2.218-1.789-3.999-4-3.999H179.98c-2.211,0-4,1.781-4,3.999v15.998   C175.98,426.154,177.769,427.951,179.98,427.951z"
   id="path112" />
	<path
   d="M211.976,427.951h15.998c2.211,0,4-1.797,4-4v-15.998c0-2.218-1.789-3.999-4-3.999h-15.998c-2.21,0-4,1.781-4,3.999v15.998   C207.976,426.154,209.765,427.951,211.976,427.951z"
   id="path114" />
	<path
   d="M243.972,427.951h15.998c2.211,0,4-1.797,4-4v-15.998c0-2.218-1.789-3.999-4-3.999h-15.998c-2.21,0-4,1.781-4,3.999v15.998   C239.973,426.154,241.762,427.951,243.972,427.951z"
   id="path116" />
	<path
   d="M275.969,427.951h15.998c2.21,0,3.999-1.797,3.999-4v-15.998c0-2.218-1.789-3.999-3.999-3.999h-15.998   c-2.211,0-4,1.781-4,3.999v15.998C271.969,426.154,273.758,427.951,275.969,427.951z"
   id="path118" />
	<path
   d="M307.965,427.951h15.998c2.211,0,3.999-1.797,3.999-4v-15.998c0-2.218-1.788-3.999-3.999-3.999h-15.998   c-2.211,0-3.999,1.781-3.999,3.999v15.998C303.966,426.154,305.754,427.951,307.965,427.951z"
   id="path120" />
	<path
   d="M355.959,403.953h-15.998c-2.21,0-3.999,1.781-3.999,3.999v15.998c0,2.203,1.789,4,3.999,4h15.998c2.211,0,4-1.797,4-4   v-15.998C359.959,405.736,358.17,403.953,355.959,403.953z"
   id="path122" />
	<path
   d="M387.956,403.953h-15.998c-2.211,0-4,1.781-4,3.999v15.998c0,2.203,1.789,4,4,4h15.998c2.21,0,3.999-1.797,3.999-4v-15.998   C391.955,405.736,390.166,403.953,387.956,403.953z"
   id="path124" />
	<path
   d="M387.956,435.949h-15.998c-2.211,0-4,1.797-4,4v15.998c0,2.218,1.789,3.999,4,3.999h15.998c2.21,0,3.999-1.781,3.999-3.999   v-15.998C391.955,437.746,390.166,435.949,387.956,435.949z"
   id="path126" />
	<path
   d="M451.949,403.953h-15.998c-2.211,0-4,1.781-4,3.999v15.998c0,2.203,1.789,4,4,4h15.998c2.211,0,4-1.797,4-4v-15.998   C455.949,405.736,454.159,403.953,451.949,403.953z"
   id="path128" />
	<path
   d="M27.997,427.951h71.991c2.211,0,4-1.797,4-4v-15.998c0-2.218-1.789-3.999-4-3.999H27.997c-2.211,0-4,1.781-4,3.999v15.998   C23.997,426.154,25.786,427.951,27.997,427.951z"
   id="path130" />
	<path
   d="M35.996,291.966c6.616,0,11.999-5.39,11.999-11.998c0-6.625-5.382-11.999-11.999-11.999s-11.999,5.374-11.999,11.999   C23.997,286.576,29.38,291.966,35.996,291.966z"
   id="path132" />
	<path
   d="M67.992,291.966c6.616,0,11.999-5.39,11.999-11.998c0-6.625-5.382-11.999-11.999-11.999s-11.999,5.374-11.999,11.999   C55.994,286.576,61.376,291.966,67.992,291.966z"
   id="path134" />
	<path
   d="M99.989,291.966c6.617,0,11.999-5.39,11.999-11.998c0-6.625-5.382-11.999-11.999-11.999   c-6.616,0-11.998,5.374-11.998,11.999C87.991,286.576,93.372,291.966,99.989,291.966z"
   id="path136" />
	<path
   d="M131.985,291.966c6.617,0,11.999-5.39,11.999-11.998c0-6.625-5.382-11.999-11.999-11.999   c-6.617,0-11.999,5.374-11.999,11.999C119.987,286.576,125.368,291.966,131.985,291.966z"
   id="path138" />
	<path
   d="M163.982,291.966c6.616,0,11.999-5.39,11.999-11.998c0-6.625-5.382-11.999-11.999-11.999   c-6.617,0-11.999,5.374-11.999,11.999C151.983,286.576,157.365,291.966,163.982,291.966z"
   id="path140" />
	<path
   d="M195.978,291.966c6.616,0,11.999-5.39,11.999-11.998c0-6.625-5.382-11.999-11.999-11.999s-11.999,5.374-11.999,11.999   C183.979,286.576,189.362,291.966,195.978,291.966z"
   id="path142" />
	<path
   d="M227.974,291.966c6.617,0,11.999-5.39,11.999-11.998c0-6.625-5.382-11.999-11.999-11.999   c-6.616,0-11.998,5.374-11.998,11.999C215.976,286.576,221.358,291.966,227.974,291.966z"
   id="path144" />
	<path
   d="M259.97,291.966c6.617,0,11.999-5.39,11.999-11.998c0-6.625-5.382-11.999-11.999-11.999   c-6.616,0-11.998,5.374-11.998,11.999C247.972,286.576,253.354,291.966,259.97,291.966z"
   id="path146" />
	<path
   d="M291.967,291.966c6.616,0,11.999-5.39,11.999-11.998c0-6.625-5.383-11.999-11.999-11.999s-11.999,5.374-11.999,11.999   C279.968,286.576,285.351,291.966,291.967,291.966z"
   id="path148" />
	<path
   d="M323.963,291.966c6.616,0,11.999-5.39,11.999-11.998c0-6.625-5.383-11.999-11.999-11.999s-11.999,5.374-11.999,11.999   C311.964,286.576,317.347,291.966,323.963,291.966z"
   id="path150" />
	<path
   d="M355.959,291.966c6.616,0,11.999-5.39,11.999-11.998c0-6.625-5.383-11.999-11.999-11.999s-11.998,5.374-11.998,11.999   C343.961,286.576,349.343,291.966,355.959,291.966z"
   id="path152" />
	<path
   d="M387.956,291.966c6.616,0,11.998-5.39,11.998-11.998c0-6.625-5.382-11.999-11.998-11.999   c-6.617,0-11.999,5.374-11.999,11.999C375.957,286.576,381.339,291.966,387.956,291.966z"
   id="path154" />
	<path
   d="M419.952,291.966c6.616,0,11.998-5.39,11.998-11.998c0-6.625-5.382-11.999-11.998-11.999   c-6.617,0-11.999,5.374-11.999,11.999C407.953,286.576,413.335,291.966,419.952,291.966z"
   id="path156" />
</g>
<g
   id="g308">
	<rect
   x="28.001"
   y="307.96"
   style="fill:#FFFFFF;"
   width="15.998"
   height="15.998"
   id="rect160" />
	<rect
   x="59.991"
   y="307.96"
   style="fill:#FFFFFF;"
   width="15.998"
   height="15.998"
   id="rect162" />
	<rect
   x="91.991"
   y="307.96"
   style="fill:#FFFFFF;"
   width="15.998"
   height="15.998"
   id="rect164" />
	<rect
   x="123.991"
   y="307.96"
   style="fill:#FFFFFF;"
   width="15.998"
   height="15.998"
   id="rect166" />
	<rect
   x="155.981"
   y="307.96"
   style="fill:#FFFFFF;"
   width="15.998"
   height="15.998"
   id="rect168" />
	<rect
   x="187.981"
   y="307.96"
   style="fill:#FFFFFF;"
   width="15.998"
   height="15.998"
   id="rect170" />
	<rect
   x="219.971"
   y="307.96"
   style="fill:#FFFFFF;"
   width="15.998"
   height="15.998"
   id="rect172" />
	<rect
   x="251.971"
   y="307.96"
   style="fill:#FFFFFF;"
   width="15.999"
   height="15.998"
   id="rect174" />
	<rect
   x="283.971"
   y="307.96"
   style="fill:#FFFFFF;"
   width="15.998"
   height="15.998"
   id="rect176" />
	<rect
   x="315.961"
   y="307.96"
   style="fill:#FFFFFF;"
   width="15.998"
   height="15.998"
   id="rect178" />
	<rect
   x="347.961"
   y="307.96"
   style="fill:#FFFFFF;"
   width="15.998"
   height="15.998"
   id="rect180" />
	<rect
   x="379.961"
   y="307.96"
   style="fill:#FFFFFF;"
   width="15.998"
   height="15.998"
   id="rect182" />
	<rect
   x="411.951"
   y="307.96"
   style="fill:#FFFFFF;"
   width="15.998"
   height="15.998"
   id="rect184" />
	<rect
   x="28.001"
   y="435.951"
   style="fill:#FFFFFF;"
   width="15.998"
   height="15.998"
   id="rect186" />
	<rect
   x="59.991"
   y="435.951"
   style="fill:#FFFFFF;"
   width="15.998"
   height="15.998"
   id="rect188" />
	<rect
   x="91.991"
   y="435.951"
   style="fill:#FFFFFF;"
   width="15.998"
   height="15.998"
   id="rect190" />
	<rect
   x="123.991"
   y="435.951"
   style="fill:#FFFFFF;"
   width="15.998"
   height="15.998"
   id="rect192" />
	<rect
   x="155.981"
   y="435.951"
   style="fill:#FFFFFF;"
   width="199.98"
   height="15.998"
   id="rect194" />
	<rect
   x="403.951"
   y="435.951"
   style="fill:#FFFFFF;"
   width="15.998"
   height="15.998"
   id="rect196" />
	<rect
   x="435.951"
   y="435.951"
   style="fill:#FFFFFF;"
   width="15.998"
   height="15.998"
   id="rect198" />
	<rect
   x="467.951"
   y="435.951"
   style="fill:#FFFFFF;"
   width="15.998"
   height="15.998"
   id="rect200" />
	<rect
   x="91.991"
   y="371.96"
   style="fill:#FFFFFF;"
   width="15.998"
   height="15.998"
   id="rect202" />
	<rect
   x="28.001"
   y="371.96"
   style="fill:#FFFFFF;"
   width="47.994"
   height="15.998"
   id="rect204" />
	<rect
   x="123.991"
   y="371.96"
   style="fill:#FFFFFF;"
   width="15.998"
   height="15.998"
   id="rect206" />
	<rect
   x="155.981"
   y="371.96"
   style="fill:#FFFFFF;"
   width="15.998"
   height="15.998"
   id="rect208" />
	<rect
   x="187.981"
   y="371.96"
   style="fill:#FFFFFF;"
   width="15.998"
   height="15.998"
   id="rect210" />
	<rect
   x="219.971"
   y="371.96"
   style="fill:#FFFFFF;"
   width="15.998"
   height="15.998"
   id="rect212" />
	<rect
   x="251.971"
   y="371.96"
   style="fill:#FFFFFF;"
   width="15.999"
   height="15.998"
   id="rect214" />
	<rect
   x="283.971"
   y="371.96"
   style="fill:#FFFFFF;"
   width="15.998"
   height="15.998"
   id="rect216" />
	<rect
   x="315.961"
   y="371.96"
   style="fill:#FFFFFF;"
   width="15.998"
   height="15.998"
   id="rect218" />
	<rect
   x="347.961"
   y="371.96"
   style="fill:#FFFFFF;"
   width="15.998"
   height="15.998"
   id="rect220" />
	<rect
   x="379.961"
   y="371.96"
   style="fill:#FFFFFF;"
   width="15.998"
   height="15.998"
   id="rect222" />
	<rect
   x="411.951"
   y="371.96"
   style="fill:#FFFFFF;"
   width="15.998"
   height="15.998"
   id="rect224" />
	<rect
   x="83.991"
   y="339.96"
   style="fill:#FFFFFF;"
   width="15.998"
   height="15.998"
   id="rect226" />
	<rect
   x="115.991"
   y="339.96"
   style="fill:#FFFFFF;"
   width="15.998"
   height="15.998"
   id="rect228" />
	<rect
   x="147.981"
   y="339.96"
   style="fill:#FFFFFF;"
   width="15.998"
   height="15.998"
   id="rect230" />
	<rect
   x="179.981"
   y="339.96"
   style="fill:#FFFFFF;"
   width="15.998"
   height="15.998"
   id="rect232" />
	<rect
   x="211.971"
   y="339.96"
   style="fill:#FFFFFF;"
   width="15.998"
   height="15.998"
   id="rect234" />
	<rect
   x="243.971"
   y="339.96"
   style="fill:#FFFFFF;"
   width="15.998"
   height="15.998"
   id="rect236" />
	<rect
   x="275.971"
   y="339.96"
   style="fill:#FFFFFF;"
   width="15.998"
   height="15.998"
   id="rect238" />
	<rect
   x="307.961"
   y="339.96"
   style="fill:#FFFFFF;"
   width="15.998"
   height="15.998"
   id="rect240" />
	<rect
   x="339.961"
   y="339.96"
   style="fill:#FFFFFF;"
   width="15.998"
   height="15.998"
   id="rect242" />
	<rect
   x="371.961"
   y="339.96"
   style="fill:#FFFFFF;"
   width="15.998"
   height="15.998"
   id="rect244" />
	<rect
   x="403.951"
   y="339.96"
   style="fill:#FFFFFF;"
   width="15.998"
   height="15.998"
   id="rect246" />
	<rect
   x="435.951"
   y="339.96"
   style="fill:#FFFFFF;"
   width="15.998"
   height="15.998"
   id="rect248" />
	<rect
   x="467.951"
   y="339.96"
   style="fill:#FFFFFF;"
   width="15.998"
   height="15.998"
   id="rect250" />
	<rect
   x="443.951"
   y="307.96"
   style="fill:#FFFFFF;"
   width="39.995"
   height="15.998"
   id="rect252" />
	<rect
   x="443.951"
   y="371.96"
   style="fill:#FFFFFF;"
   width="39.995"
   height="15.998"
   id="rect254" />
	<rect
   x="28.001"
   y="339.96"
   style="fill:#FFFFFF;"
   width="39.995"
   height="15.998"
   id="rect256" />
	<rect
   x="115.991"
   y="403.951"
   style="fill:#FFFFFF;"
   width="15.998"
   height="15.998"
   id="rect258" />
	<rect
   x="147.981"
   y="403.951"
   style="fill:#FFFFFF;"
   width="15.998"
   height="15.998"
   id="rect260" />
	<rect
   x="179.981"
   y="403.951"
   style="fill:#FFFFFF;"
   width="15.998"
   height="15.998"
   id="rect262" />
	<rect
   x="211.971"
   y="403.951"
   style="fill:#FFFFFF;"
   width="15.998"
   height="15.998"
   id="rect264" />
	<rect
   x="243.971"
   y="403.951"
   style="fill:#FFFFFF;"
   width="15.998"
   height="15.998"
   id="rect266" />
	<rect
   x="275.971"
   y="403.951"
   style="fill:#FFFFFF;"
   width="15.998"
   height="15.998"
   id="rect268" />
	<rect
   x="307.961"
   y="403.951"
   style="fill:#FFFFFF;"
   width="15.998"
   height="15.998"
   id="rect270" />
	<rect
   x="339.961"
   y="403.951"
   style="fill:#FFFFFF;"
   width="15.998"
   height="15.998"
   id="rect272" />
	<rect
   x="371.961"
   y="403.951"
   style="fill:#FFFFFF;"
   width="15.998"
   height="15.998"
   id="rect274" />
	<rect
   x="371.961"
   y="435.96"
   style="fill:#FFFFFF;"
   width="15.998"
   height="15.998"
   id="rect276" />
	<rect
   x="435.951"
   y="403.951"
   style="fill:#FFFFFF;"
   width="15.998"
   height="15.998"
   id="rect278" />
	<rect
   x="28.001"
   y="403.951"
   style="fill:#FFFFFF;"
   width="71.991"
   height="15.998"
   id="rect280" />
	<path
   style="fill:#FFFFFF;"
   d="M43.995,275.968c0,4.422-3.586,7.999-7.999,7.999c-4.422,0-7.999-3.577-7.999-7.999   s3.577-7.999,7.999-7.999C40.409,267.969,43.995,271.546,43.995,275.968z"
   id="path282" />
	<path
   style="fill:#FFFFFF;"
   d="M75.992,275.968c0,4.422-3.585,7.999-7.999,7.999c-4.421,0-7.999-3.577-7.999-7.999   s3.578-7.999,7.999-7.999C72.406,267.969,75.992,271.546,75.992,275.968z"
   id="path284" />
	<path
   style="fill:#FFFFFF;"
   d="M107.988,275.968c0,4.422-3.585,7.999-7.999,7.999c-4.421,0-7.999-3.577-7.999-7.999   s3.578-7.999,7.999-7.999C104.403,267.969,107.988,271.546,107.988,275.968z"
   id="path286" />
	<path
   style="fill:#FFFFFF;"
   d="M139.984,275.968c0,4.422-3.585,7.999-7.999,7.999c-4.421,0-7.999-3.577-7.999-7.999   s3.578-7.999,7.999-7.999C136.399,267.969,139.984,271.546,139.984,275.968z"
   id="path288" />
	<path
   style="fill:#FFFFFF;"
   d="M171.981,275.968c0,4.422-3.586,7.999-7.999,7.999c-4.422,0-7.999-3.577-7.999-7.999   s3.577-7.999,7.999-7.999C168.395,267.969,171.981,271.546,171.981,275.968z"
   id="path290" />
	<path
   style="fill:#FFFFFF;"
   d="M203.977,275.968c0,4.422-3.585,7.999-7.999,7.999c-4.421,0-7.999-3.577-7.999-7.999   s3.578-7.999,7.999-7.999C200.391,267.969,203.977,271.546,203.977,275.968z"
   id="path292" />
	<path
   style="fill:#FFFFFF;"
   d="M235.973,275.968c0,4.422-3.585,7.999-7.999,7.999c-4.421,0-7.999-3.577-7.999-7.999   s3.578-7.999,7.999-7.999C232.388,267.969,235.973,271.546,235.973,275.968z"
   id="path294" />
	<path
   style="fill:#FFFFFF;"
   d="M267.97,275.968c0,4.422-3.578,7.999-8,7.999c-4.421,0-7.999-3.577-7.999-7.999   s3.578-7.999,7.999-7.999C264.392,267.969,267.97,271.546,267.97,275.968z"
   id="path296" />
	<path
   style="fill:#FFFFFF;"
   d="M299.966,275.968c0,4.422-3.578,7.999-7.999,7.999c-4.422,0-7.999-3.577-7.999-7.999   s3.577-7.999,7.999-7.999C296.388,267.969,299.966,271.546,299.966,275.968z"
   id="path298" />
	<path
   style="fill:#FFFFFF;"
   d="M331.962,275.968c0,4.422-3.578,7.999-7.999,7.999s-7.999-3.577-7.999-7.999   s3.578-7.999,7.999-7.999S331.962,271.546,331.962,275.968z"
   id="path300" />
	<path
   style="fill:#FFFFFF;"
   d="M363.958,275.968c0,4.422-3.577,7.999-7.999,7.999c-4.421,0-7.999-3.577-7.999-7.999   s3.578-7.999,7.999-7.999C360.381,267.969,363.958,271.546,363.958,275.968z"
   id="path302" />
	<path
   style="fill:#FFFFFF;"
   d="M395.954,275.968c0,4.422-3.577,7.999-7.998,7.999c-4.422,0-8-3.577-8-7.999s3.578-7.999,8-7.999   C392.377,267.969,395.954,271.546,395.954,275.968z"
   id="path304" />
	<path
   style="fill:#FFFFFF;"
   d="M427.951,275.968c0,4.422-3.578,7.999-7.999,7.999c-4.422,0-7.999-3.577-7.999-7.999   s3.577-7.999,7.999-7.999C424.373,267.969,427.951,271.546,427.951,275.968z"
   id="path306" />
</g>
<rect
   x="243.971"
   y="211.97"
   style="fill:#656D78;"
   width="15.998"
   height="31.997"
   id="rect310" />
<g
   style="opacity:0.2;"
   id="g314">
	<rect
   x="243.971"
   y="235.97"
   width="15.998"
   height="8"
   id="rect312" />
</g>
<g
   id="g500">
	<path
   style="fill:#3A3847;"
   d="M452.191,279.968c-2.211,0-4.039-1.789-4.039-4s1.75-4,3.953-4h0.086c2.203,0,4,1.789,4,4   S454.394,279.968,452.191,279.968z"
   id="path316" />
	<path
   style="fill:#3A3847;"
   d="M468.189,279.968c-2.211,0-4.039-1.789-4.039-4s1.75-4,3.953-4h0.086c2.203,0,4,1.789,4,4   S470.392,279.968,468.189,279.968z"
   id="path318" />
	<path
   style="fill:#3A3847;"
   d="M484.187,279.968c-2.211,0-4.038-1.789-4.038-4s1.749-4,3.952-4h0.086c2.203,0,4,1.789,4,4   S486.39,279.968,484.187,279.968z"
   id="path320" />
	<path
   style="fill:#3A3847;"
   d="M491.944,479.945H19.998C8.968,479.945,0,470.978,0,459.948V259.97   c0-11.026,8.968-19.998,19.998-19.998h471.945c11.03,0,19.998,8.972,19.998,19.998v199.977   C511.942,470.977,502.974,479.945,491.944,479.945z M19.998,247.971c-6.617,0-11.999,5.382-11.999,11.999v199.977   c0,6.617,5.382,11.999,11.999,11.999h471.945c6.616,0,11.999-5.382,11.999-11.999V259.97c0-6.617-5.383-11.999-11.999-11.999   H19.998z"
   id="path322" />
	<path
   style="fill:#3A3847;"
   d="M43.995,327.962H27.997c-2.211,0-4-1.789-4-4v-15.998c0-2.211,1.789-3.999,4-3.999h15.998   c2.21,0,4,1.788,4,3.999v15.998C47.995,326.173,46.206,327.962,43.995,327.962z M31.996,319.964h7.999v-7.999h-7.999V319.964z"
   id="path324" />
	<path
   style="fill:#3A3847;"
   d="M75.992,327.962H59.993c-2.211,0-4-1.789-4-4v-15.998c0-2.211,1.789-3.999,4-3.999h15.998   c2.211,0,4,1.788,4,3.999v15.998C79.991,326.173,78.202,327.962,75.992,327.962z M63.993,319.964h7.999v-7.999h-7.999V319.964z"
   id="path326" />
	<path
   style="fill:#3A3847;"
   d="M107.988,327.962H91.99c-2.21,0-3.999-1.789-3.999-4v-15.998c0-2.211,1.789-3.999,3.999-3.999   h15.998c2.211,0,4,1.788,4,3.999v15.998C111.988,326.173,110.199,327.962,107.988,327.962z M95.99,319.964h7.999v-7.999H95.99   V319.964z"
   id="path328" />
	<path
   style="fill:#3A3847;"
   d="M139.984,327.962h-15.998c-2.21,0-4-1.789-4-4v-15.998c0-2.211,1.789-3.999,4-3.999h15.998   c2.21,0,4,1.788,4,3.999v15.998C143.984,326.173,142.195,327.962,139.984,327.962z M127.986,319.964h7.999v-7.999h-7.999V319.964z"
   id="path330" />
	<path
   style="fill:#3A3847;"
   d="M171.981,327.962h-15.998c-2.211,0-4-1.789-4-4v-15.998c0-2.211,1.789-3.999,4-3.999h15.998   c2.21,0,4,1.788,4,3.999v15.998C175.98,326.173,174.191,327.962,171.981,327.962z M159.982,319.964h7.999v-7.999h-7.999V319.964z"
   id="path332" />
	<path
   style="fill:#3A3847;"
   d="M203.977,327.962h-15.998c-2.211,0-4-1.789-4-4v-15.998c0-2.211,1.789-3.999,4-3.999h15.998   c2.211,0,4,1.788,4,3.999v15.998C207.976,326.173,206.188,327.962,203.977,327.962z M191.978,319.964h7.999v-7.999h-7.999V319.964z   "
   id="path334" />
	<path
   style="fill:#3A3847;"
   d="M235.973,327.962h-15.998c-2.21,0-3.999-1.789-3.999-4v-15.998c0-2.211,1.789-3.999,3.999-3.999   h15.998c2.211,0,4,1.788,4,3.999v15.998C239.973,326.173,238.184,327.962,235.973,327.962z M223.975,319.964h7.999v-7.999h-7.999   V319.964z"
   id="path336" />
	<path
   style="fill:#3A3847;"
   d="M267.97,327.962h-15.999c-2.21,0-4-1.789-4-4v-15.998c0-2.211,1.789-3.999,4-3.999h15.999   c2.21,0,3.999,1.788,3.999,3.999v15.998C271.969,326.173,270.18,327.962,267.97,327.962z M255.971,319.964h7.999v-7.999h-7.999   V319.964z"
   id="path338" />
	<path
   style="fill:#3A3847;"
   d="M299.966,327.962h-15.998c-2.211,0-4-1.789-4-4v-15.998c0-2.211,1.789-3.999,4-3.999h15.998   c2.211,0,4,1.788,4,3.999v15.998C303.966,326.173,302.177,327.962,299.966,327.962z M287.967,319.964h7.999v-7.999h-7.999V319.964z   "
   id="path340" />
	<path
   style="fill:#3A3847;"
   d="M331.962,327.962h-15.998c-2.211,0-4-1.789-4-4v-15.998c0-2.211,1.789-3.999,4-3.999h15.998   c2.211,0,4,1.788,4,3.999v15.998C335.962,326.173,334.173,327.962,331.962,327.962z M319.964,319.964h7.998v-7.999h-7.998V319.964z   "
   id="path342" />
	<path
   style="fill:#3A3847;"
   d="M363.958,327.962H347.96c-2.211,0-3.999-1.789-3.999-4v-15.998c0-2.211,1.788-3.999,3.999-3.999   h15.998c2.211,0,4,1.788,4,3.999v15.998C367.958,326.173,366.169,327.962,363.958,327.962z M351.96,319.964h7.999v-7.999h-7.999   V319.964z"
   id="path344" />
	<path
   style="fill:#3A3847;"
   d="M395.954,327.962h-15.998c-2.21,0-3.999-1.789-3.999-4v-15.998c0-2.211,1.789-3.999,3.999-3.999   h15.998c2.211,0,4,1.788,4,3.999v15.998C399.954,326.173,398.165,327.962,395.954,327.962z M383.956,319.964h7.999v-7.999h-7.999   V319.964z"
   id="path346" />
	<path
   style="fill:#3A3847;"
   d="M427.951,327.962h-15.998c-2.211,0-4-1.789-4-4v-15.998c0-2.211,1.789-3.999,4-3.999h15.998   c2.21,0,3.999,1.788,3.999,3.999v15.998C431.95,326.173,430.161,327.962,427.951,327.962z M415.952,319.964h7.999v-7.999h-7.999   V319.964z"
   id="path348" />
	<path
   style="fill:#3A3847;"
   d="M43.995,455.948H27.997c-2.211,0-4-1.789-4-4v-15.998c0-2.21,1.789-3.999,4-3.999h15.998   c2.21,0,4,1.789,4,3.999v15.998C47.995,454.158,46.206,455.948,43.995,455.948z M31.996,447.949h7.999v-7.999h-7.999V447.949z"
   id="path350" />
	<path
   style="fill:#3A3847;"
   d="M75.992,455.948H59.993c-2.211,0-4-1.789-4-4v-15.998c0-2.21,1.789-3.999,4-3.999h15.998   c2.211,0,4,1.789,4,3.999v15.998C79.991,454.158,78.202,455.948,75.992,455.948z M63.993,447.949h7.999v-7.999h-7.999V447.949z"
   id="path352" />
	<path
   style="fill:#3A3847;"
   d="M107.988,455.948H91.99c-2.21,0-3.999-1.789-3.999-4v-15.998c0-2.21,1.789-3.999,3.999-3.999h15.998   c2.211,0,4,1.789,4,3.999v15.998C111.988,454.158,110.199,455.948,107.988,455.948z M95.99,447.949h7.999v-7.999H95.99V447.949z"
   id="path354" />
	<path
   style="fill:#3A3847;"
   d="M139.984,455.948h-15.998c-2.21,0-4-1.789-4-4v-15.998c0-2.21,1.789-3.999,4-3.999h15.998   c2.21,0,4,1.789,4,3.999v15.998C143.984,454.158,142.195,455.948,139.984,455.948z M127.986,447.949h7.999v-7.999h-7.999V447.949z"
   id="path356" />
	<path
   style="fill:#3A3847;"
   d="M355.959,455.948H155.983c-2.211,0-4-1.789-4-4v-15.998c0-2.21,1.789-3.999,4-3.999H355.96   c2.211,0,4,1.789,4,3.999v15.998C359.959,454.158,358.17,455.948,355.959,455.948z M159.982,447.949h191.979v-7.999H159.982   V447.949z"
   id="path358" />
	<path
   style="fill:#3A3847;"
   d="M419.952,455.948h-15.998c-2.211,0-4-1.789-4-4v-15.998c0-2.21,1.789-3.999,4-3.999h15.998   c2.211,0,3.999,1.789,3.999,3.999v15.998C423.951,454.158,422.163,455.948,419.952,455.948z M407.953,447.949h7.999v-7.999h-7.999   V447.949z"
   id="path360" />
	<path
   style="fill:#3A3847;"
   d="M451.949,455.948h-15.998c-2.211,0-4-1.789-4-4v-15.998c0-2.21,1.789-3.999,4-3.999h15.998   c2.211,0,4,1.789,4,3.999v15.998C455.949,454.158,454.159,455.948,451.949,455.948z M439.95,447.949h7.998v-7.999h-7.998V447.949z"
   id="path362" />
	<path
   style="fill:#3A3847;"
   d="M483.945,455.948h-15.998c-2.211,0-4-1.789-4-4v-15.998c0-2.21,1.789-3.999,4-3.999h15.998   c2.211,0,4,1.789,4,3.999v15.998C487.945,454.158,486.156,455.948,483.945,455.948z M471.947,447.949h7.999v-7.999h-7.999V447.949z   "
   id="path364" />
	<path
   style="fill:#3A3847;"
   d="M107.988,391.954H91.99c-2.21,0-3.999-1.789-3.999-3.999v-15.998c0-2.211,1.789-4,3.999-4h15.998   c2.211,0,4,1.789,4,4v15.998C111.988,390.165,110.199,391.954,107.988,391.954z M95.99,383.955h7.999v-7.999H95.99V383.955z"
   id="path366" />
	<path
   style="fill:#3A3847;"
   d="M75.992,391.954H27.997c-2.211,0-4-1.789-4-3.999v-15.998c0-2.211,1.789-4,4-4h47.994   c2.211,0,4,1.789,4,4v15.998C79.991,390.165,78.202,391.954,75.992,391.954z M31.996,383.955h39.996v-7.999H31.996V383.955z"
   id="path368" />
	<path
   style="fill:#3A3847;"
   d="M139.984,391.954h-15.998c-2.21,0-4-1.789-4-3.999v-15.998c0-2.211,1.789-4,4-4h15.998   c2.21,0,4,1.789,4,4v15.998C143.984,390.165,142.195,391.954,139.984,391.954z M127.986,383.955h7.999v-7.999h-7.999V383.955z"
   id="path370" />
	<path
   style="fill:#3A3847;"
   d="M171.981,391.954h-15.998c-2.211,0-4-1.789-4-3.999v-15.998c0-2.211,1.789-4,4-4h15.998   c2.21,0,4,1.789,4,4v15.998C175.98,390.165,174.191,391.954,171.981,391.954z M159.982,383.955h7.999v-7.999h-7.999V383.955z"
   id="path372" />
	<path
   style="fill:#3A3847;"
   d="M203.977,391.954h-15.998c-2.211,0-4-1.789-4-3.999v-15.998c0-2.211,1.789-4,4-4h15.998   c2.211,0,4,1.789,4,4v15.998C207.976,390.165,206.188,391.954,203.977,391.954z M191.978,383.955h7.999v-7.999h-7.999V383.955z"
   id="path374" />
	<path
   style="fill:#3A3847;"
   d="M235.973,391.954h-15.998c-2.21,0-3.999-1.789-3.999-3.999v-15.998c0-2.211,1.789-4,3.999-4h15.998   c2.211,0,4,1.789,4,4v15.998C239.973,390.165,238.184,391.954,235.973,391.954z M223.975,383.955h7.999v-7.999h-7.999V383.955z"
   id="path376" />
	<path
   style="fill:#3A3847;"
   d="M267.97,391.954h-15.999c-2.21,0-4-1.789-4-3.999v-15.998c0-2.211,1.789-4,4-4h15.999   c2.21,0,3.999,1.789,3.999,4v15.998C271.969,390.165,270.18,391.954,267.97,391.954z M255.971,383.955h7.999v-7.999h-7.999V383.955   z"
   id="path378" />
	<path
   style="fill:#3A3847;"
   d="M299.966,391.954h-15.998c-2.211,0-4-1.789-4-3.999v-15.998c0-2.211,1.789-4,4-4h15.998   c2.211,0,4,1.789,4,4v15.998C303.966,390.165,302.177,391.954,299.966,391.954z M287.967,383.955h7.999v-7.999h-7.999V383.955z"
   id="path380" />
	<path
   style="fill:#3A3847;"
   d="M331.962,391.954h-15.998c-2.211,0-4-1.789-4-3.999v-15.998c0-2.211,1.789-4,4-4h15.998   c2.211,0,4,1.789,4,4v15.998C335.962,390.165,334.173,391.954,331.962,391.954z M319.964,383.955h7.998v-7.999h-7.998V383.955z"
   id="path382" />
	<path
   style="fill:#3A3847;"
   d="M363.958,391.954H347.96c-2.211,0-3.999-1.789-3.999-3.999v-15.998c0-2.211,1.788-4,3.999-4h15.998   c2.211,0,4,1.789,4,4v15.998C367.958,390.165,366.169,391.954,363.958,391.954z M351.96,383.955h7.999v-7.999h-7.999V383.955z"
   id="path384" />
	<path
   style="fill:#3A3847;"
   d="M395.954,391.954h-15.998c-2.21,0-3.999-1.789-3.999-3.999v-15.998c0-2.211,1.789-4,3.999-4h15.998   c2.211,0,4,1.789,4,4v15.998C399.954,390.165,398.165,391.954,395.954,391.954z M383.956,383.955h7.999v-7.999h-7.999V383.955z"
   id="path386" />
	<path
   style="fill:#3A3847;"
   d="M427.951,391.954h-15.998c-2.211,0-4-1.789-4-3.999v-15.998c0-2.211,1.789-4,4-4h15.998   c2.21,0,3.999,1.789,3.999,4v15.998C431.95,390.165,430.161,391.954,427.951,391.954z M415.952,383.955h7.999v-7.999h-7.999   V383.955z"
   id="path388" />
	<path
   style="fill:#3A3847;"
   d="M99.989,359.958H83.991c-2.21,0-4-1.789-4-4V339.96c0-2.21,1.789-3.999,4-3.999h15.998   c2.211,0,4,1.789,4,3.999v15.998C103.989,358.169,102.2,359.958,99.989,359.958z M87.991,351.96h7.999v-7.999h-7.999V351.96z"
   id="path390" />
	<path
   style="fill:#3A3847;"
   d="M131.985,359.958h-15.998c-2.21,0-4-1.789-4-4V339.96c0-2.21,1.789-3.999,4-3.999h15.998   c2.21,0,4,1.789,4,3.999v15.998C135.985,358.169,134.196,359.958,131.985,359.958z M119.987,351.96h7.999v-7.999h-7.999V351.96z"
   id="path392" />
	<path
   style="fill:#3A3847;"
   d="M163.982,359.958h-15.998c-2.211,0-4-1.789-4-4V339.96c0-2.21,1.789-3.999,4-3.999h15.998   c2.21,0,3.999,1.789,3.999,3.999v15.998C167.981,358.169,166.192,359.958,163.982,359.958z M151.983,351.96h7.999v-7.999h-7.999   V351.96z"
   id="path394" />
	<path
   style="fill:#3A3847;"
   d="M195.978,359.958H179.98c-2.211,0-4-1.789-4-4V339.96c0-2.21,1.789-3.999,4-3.999h15.998   c2.211,0,4,1.789,4,3.999v15.998C199.977,358.169,198.189,359.958,195.978,359.958z M183.979,351.96h7.999v-7.999h-7.999V351.96z"
   id="path396" />
	<path
   style="fill:#3A3847;"
   d="M227.974,359.958h-15.998c-2.21,0-4-1.789-4-4V339.96c0-2.21,1.789-3.999,4-3.999h15.998   c2.211,0,4,1.789,4,3.999v15.998C231.974,358.169,230.185,359.958,227.974,359.958z M215.976,351.96h7.999v-7.999h-7.999V351.96z"
   id="path398" />
	<path
   style="fill:#3A3847;"
   d="M259.97,359.958h-15.998c-2.21,0-4-1.789-4-4V339.96c0-2.21,1.789-3.999,4-3.999h15.998   c2.211,0,4,1.789,4,3.999v15.998C263.97,358.169,262.181,359.958,259.97,359.958z M247.972,351.96h7.999v-7.999h-7.999V351.96z"
   id="path400" />
	<path
   style="fill:#3A3847;"
   d="M291.967,359.958h-15.998c-2.211,0-4-1.789-4-4V339.96c0-2.21,1.789-3.999,4-3.999h15.998   c2.21,0,3.999,1.789,3.999,3.999v15.998C295.966,358.169,294.177,359.958,291.967,359.958z M279.968,351.96h7.999v-7.999h-7.999   V351.96z"
   id="path402" />
	<path
   style="fill:#3A3847;"
   d="M323.963,359.958h-15.998c-2.211,0-3.999-1.789-3.999-4V339.96c0-2.21,1.788-3.999,3.999-3.999   h15.998c2.211,0,3.999,1.789,3.999,3.999v15.998C327.962,358.169,326.174,359.958,323.963,359.958z M311.964,351.96h8v-7.999h-8   V351.96z"
   id="path404" />
	<path
   style="fill:#3A3847;"
   d="M355.959,359.958h-15.998c-2.21,0-3.999-1.789-3.999-4V339.96c0-2.21,1.789-3.999,3.999-3.999   h15.998c2.211,0,4,1.789,4,3.999v15.998C359.959,358.169,358.17,359.958,355.959,359.958z M343.961,351.96h7.999v-7.999h-7.999   V351.96z"
   id="path406" />
	<path
   style="fill:#3A3847;"
   d="M387.956,359.958h-15.998c-2.211,0-4-1.789-4-4V339.96c0-2.21,1.789-3.999,4-3.999h15.998   c2.21,0,3.999,1.789,3.999,3.999v15.998C391.955,358.169,390.166,359.958,387.956,359.958z M375.957,351.96h7.999v-7.999h-7.999   V351.96z"
   id="path408" />
	<path
   style="fill:#3A3847;"
   d="M419.952,359.958h-15.998c-2.211,0-4-1.789-4-4V339.96c0-2.21,1.789-3.999,4-3.999h15.998   c2.211,0,3.999,1.789,3.999,3.999v15.998C423.951,358.169,422.163,359.958,419.952,359.958z M407.953,351.96h7.999v-7.999h-7.999   V351.96z"
   id="path410" />
	<path
   style="fill:#3A3847;"
   d="M451.949,359.958h-15.998c-2.211,0-4-1.789-4-4V339.96c0-2.21,1.789-3.999,4-3.999h15.998   c2.211,0,4,1.789,4,3.999v15.998C455.949,358.169,454.159,359.958,451.949,359.958z M439.95,351.96h7.998v-7.999h-7.998V351.96z"
   id="path412" />
	<path
   style="fill:#3A3847;"
   d="M483.945,359.958h-15.998c-2.211,0-4-1.789-4-4V339.96c0-2.21,1.789-3.999,4-3.999h15.998   c2.211,0,4,1.789,4,3.999v15.998C487.945,358.169,486.156,359.958,483.945,359.958z M471.947,351.96h7.999v-7.999h-7.999V351.96z"
   id="path414" />
	<path
   style="fill:#3A3847;"
   d="M483.945,327.962H443.95c-2.211,0-3.999-1.789-3.999-4v-15.998c0-2.211,1.788-3.999,3.999-3.999   h39.995c2.211,0,4,1.788,4,3.999v15.998C487.945,326.173,486.156,327.962,483.945,327.962z M447.949,319.964h31.997v-7.999h-31.997   V319.964z"
   id="path416" />
	<path
   style="fill:#3A3847;"
   d="M483.945,391.954H443.95c-2.211,0-3.999-1.789-3.999-3.999v-15.998c0-2.211,1.788-4,3.999-4h39.995   c2.211,0,4,1.789,4,4v15.998C487.945,390.165,486.156,391.954,483.945,391.954z M447.949,383.955h31.997v-7.999h-31.997V383.955z"
   id="path418" />
	<path
   style="fill:#3A3847;"
   d="M67.992,359.958H27.997c-2.211,0-4-1.789-4-4V339.96c0-2.21,1.789-3.999,4-3.999h39.995   c2.211,0,4,1.789,4,3.999v15.998C71.992,358.169,70.203,359.958,67.992,359.958z M31.996,351.96h31.997v-7.999H31.996V351.96z"
   id="path420" />
	<path
   style="fill:#3A3847;"
   d="M131.985,423.951h-15.998c-2.21,0-4-1.788-4-3.999v-15.998c0-2.211,1.789-4,4-4h15.998   c2.21,0,4,1.789,4,4v15.998C135.985,422.162,134.196,423.951,131.985,423.951z M119.987,415.952h7.999v-8h-7.999V415.952z"
   id="path422" />
	<path
   style="fill:#3A3847;"
   d="M163.982,423.951h-15.998c-2.211,0-4-1.788-4-3.999v-15.998c0-2.211,1.789-4,4-4h15.998   c2.21,0,3.999,1.789,3.999,4v15.998C167.981,422.162,166.192,423.951,163.982,423.951z M151.983,415.952h7.999v-8h-7.999V415.952z"
   id="path424" />
	<path
   style="fill:#3A3847;"
   d="M195.978,423.951H179.98c-2.211,0-4-1.788-4-3.999v-15.998c0-2.211,1.789-4,4-4h15.998   c2.211,0,4,1.789,4,4v15.998C199.977,422.162,198.189,423.951,195.978,423.951z M183.979,415.952h7.999v-8h-7.999V415.952z"
   id="path426" />
	<path
   style="fill:#3A3847;"
   d="M227.974,423.951h-15.998c-2.21,0-4-1.788-4-3.999v-15.998c0-2.211,1.789-4,4-4h15.998   c2.211,0,4,1.789,4,4v15.998C231.974,422.162,230.185,423.951,227.974,423.951z M215.976,415.952h7.999v-8h-7.999V415.952z"
   id="path428" />
	<path
   style="fill:#3A3847;"
   d="M259.97,423.951h-15.998c-2.21,0-4-1.788-4-3.999v-15.998c0-2.211,1.789-4,4-4h15.998   c2.211,0,4,1.789,4,4v15.998C263.97,422.162,262.181,423.951,259.97,423.951z M247.972,415.952h7.999v-8h-7.999V415.952z"
   id="path430" />
	<path
   style="fill:#3A3847;"
   d="M291.967,423.951h-15.998c-2.211,0-4-1.788-4-3.999v-15.998c0-2.211,1.789-4,4-4h15.998   c2.21,0,3.999,1.789,3.999,4v15.998C295.966,422.162,294.177,423.951,291.967,423.951z M279.968,415.952h7.999v-8h-7.999V415.952z"
   id="path432" />
	<path
   style="fill:#3A3847;"
   d="M323.963,423.951h-15.998c-2.211,0-3.999-1.788-3.999-3.999v-15.998c0-2.211,1.788-4,3.999-4h15.998   c2.211,0,3.999,1.789,3.999,4v15.998C327.962,422.162,326.174,423.951,323.963,423.951z M311.964,415.952h8v-8h-8V415.952z"
   id="path434" />
	<path
   style="fill:#3A3847;"
   d="M355.959,423.951h-15.998c-2.21,0-3.999-1.788-3.999-3.999v-15.998c0-2.211,1.789-4,3.999-4h15.998   c2.211,0,4,1.789,4,4v15.998C359.959,422.162,358.17,423.951,355.959,423.951z M343.961,415.952h7.999v-8h-7.999V415.952z"
   id="path436" />
	<path
   style="fill:#3A3847;"
   d="M387.956,423.951h-15.998c-2.211,0-4-1.788-4-3.999v-15.998c0-2.211,1.789-4,4-4h15.998   c2.21,0,3.999,1.789,3.999,4v15.998C391.955,422.162,390.166,423.951,387.956,423.951z M375.957,415.952h7.999v-8h-7.999V415.952z"
   id="path438" />
	<path
   style="fill:#3A3847;"
   d="M387.956,455.955h-15.998c-2.211,0-4-1.789-4-4v-15.998c0-2.21,1.789-3.999,4-3.999h15.998   c2.21,0,3.999,1.789,3.999,3.999v15.998C391.955,454.167,390.166,455.955,387.956,455.955z M375.957,447.956h7.999v-7.999h-7.999   V447.956z"
   id="path440" />
	<path
   style="fill:#3A3847;"
   d="M451.949,423.951h-15.998c-2.211,0-4-1.788-4-3.999v-15.998c0-2.211,1.789-4,4-4h15.998   c2.211,0,4,1.789,4,4v15.998C455.949,422.162,454.159,423.951,451.949,423.951z M439.95,415.952h7.998v-8h-7.998V415.952z"
   id="path442" />
	<path
   style="fill:#3A3847;"
   d="M99.989,423.951H27.997c-2.211,0-4-1.788-4-3.999v-15.998c0-2.211,1.789-4,4-4h71.991   c2.211,0,4,1.789,4,4v15.998C103.989,422.162,102.2,423.951,99.989,423.951z M31.996,415.952h63.993v-8H31.996V415.952z"
   id="path444" />
	<path
   style="fill:#3A3847;"
   d="M35.996,287.966c-6.617,0-11.999-5.382-11.999-11.998s5.382-11.999,11.999-11.999   c6.616,0,11.999,5.383,11.999,11.999S42.613,287.966,35.996,287.966z M35.996,271.968c-2.203,0-4,1.797-4,4s1.797,4,4,4   c2.203,0,3.999-1.797,3.999-4S38.199,271.968,35.996,271.968z"
   id="path446" />
	<path
   style="fill:#3A3847;"
   d="M67.992,287.966c-6.616,0-11.999-5.382-11.999-11.998s5.382-11.999,11.999-11.999   c6.617,0,11.999,5.383,11.999,11.999S74.609,287.966,67.992,287.966z M67.992,271.968c-2.203,0-4,1.797-4,4s1.796,4,4,4   s4-1.797,4-4S70.196,271.968,67.992,271.968z"
   id="path448" />
	<path
   style="fill:#3A3847;"
   d="M99.989,287.966c-6.616,0-11.998-5.382-11.998-11.998s5.382-11.999,11.998-11.999   c6.617,0,11.999,5.383,11.999,11.999S106.605,287.966,99.989,287.966z M99.989,271.968c-2.203,0-3.999,1.797-3.999,4   s1.796,4,3.999,4s4-1.797,4-4S102.192,271.968,99.989,271.968z"
   id="path450" />
	<path
   style="fill:#3A3847;"
   d="M131.985,287.966c-6.617,0-11.999-5.382-11.999-11.998s5.382-11.999,11.999-11.999   c6.617,0,11.999,5.383,11.999,11.999S138.602,287.966,131.985,287.966z M131.985,271.968c-2.203,0-4,1.797-4,4s1.797,4,4,4   s4-1.797,4-4S134.188,271.968,131.985,271.968z"
   id="path452" />
	<path
   style="fill:#3A3847;"
   d="M163.982,287.966c-6.617,0-11.999-5.382-11.999-11.998s5.382-11.999,11.999-11.999   c6.616,0,11.999,5.383,11.999,11.999S170.598,287.966,163.982,287.966z M163.982,271.968c-2.203,0-4,1.797-4,4s1.797,4,4,4   s3.999-1.797,3.999-4S166.184,271.968,163.982,271.968z"
   id="path454" />
	<path
   style="fill:#3A3847;"
   d="M195.978,287.966c-6.616,0-11.999-5.382-11.999-11.998s5.382-11.999,11.999-11.999   s11.999,5.383,11.999,11.999S202.594,287.966,195.978,287.966z M195.978,271.968c-2.203,0-4,1.797-4,4s1.796,4,4,4s4-1.797,4-4   S198.181,271.968,195.978,271.968z"
   id="path456" />
	<path
   style="fill:#3A3847;"
   d="M227.974,287.966c-6.616,0-11.998-5.382-11.998-11.998s5.382-11.999,11.998-11.999   c6.617,0,11.999,5.383,11.999,11.999S234.591,287.966,227.974,287.966z M227.974,271.968c-2.203,0-3.999,1.797-3.999,4   s1.796,4,3.999,4c2.203,0,4-1.797,4-4S230.177,271.968,227.974,271.968z"
   id="path458" />
	<path
   style="fill:#3A3847;"
   d="M259.97,287.966c-6.616,0-11.998-5.382-11.998-11.998s5.382-11.999,11.998-11.999   c6.617,0,11.999,5.383,11.999,11.999S266.587,287.966,259.97,287.966z M259.97,271.968c-2.202,0-3.999,1.797-3.999,4   s1.797,4,3.999,4c2.203,0,4-1.797,4-4S262.173,271.968,259.97,271.968z"
   id="path460" />
	<path
   style="fill:#3A3847;"
   d="M291.967,287.966c-6.616,0-11.999-5.382-11.999-11.998s5.383-11.999,11.999-11.999   s11.999,5.383,11.999,11.999S298.583,287.966,291.967,287.966z M291.967,271.968c-2.203,0-4,1.797-4,4s1.797,4,4,4   c2.202,0,3.999-1.797,3.999-4S294.169,271.968,291.967,271.968z"
   id="path462" />
	<path
   style="fill:#3A3847;"
   d="M323.963,287.966c-6.616,0-11.999-5.382-11.999-11.998s5.383-11.999,11.999-11.999   s11.999,5.383,11.999,11.999S330.579,287.966,323.963,287.966z M323.963,271.968c-2.203,0-3.999,1.797-3.999,4s1.796,4,3.999,4   s3.999-1.797,3.999-4S326.166,271.968,323.963,271.968z"
   id="path464" />
	<path
   style="fill:#3A3847;"
   d="M355.959,287.966c-6.616,0-11.998-5.382-11.998-11.998s5.382-11.999,11.998-11.999   s11.999,5.383,11.999,11.999S362.575,287.966,355.959,287.966z M355.959,271.968c-2.202,0-3.999,1.797-3.999,4s1.797,4,3.999,4   c2.203,0,4-1.797,4-4S358.162,271.968,355.959,271.968z"
   id="path466" />
	<path
   style="fill:#3A3847;"
   d="M387.956,287.966c-6.617,0-11.999-5.382-11.999-11.998s5.382-11.999,11.999-11.999   c6.616,0,11.998,5.383,11.998,11.999S394.573,287.966,387.956,287.966z M387.956,271.968c-2.203,0-4,1.797-4,4s1.797,4,4,4   c2.202,0,3.999-1.797,3.999-4S390.159,271.968,387.956,271.968z"
   id="path468" />
	<path
   style="fill:#3A3847;"
   d="M419.952,287.966c-6.617,0-11.999-5.382-11.999-11.998s5.382-11.999,11.999-11.999   c6.616,0,11.998,5.383,11.998,11.999S426.569,287.966,419.952,287.966z M419.952,271.968c-2.203,0-4,1.797-4,4s1.797,4,4,4   s3.999-1.797,3.999-4S422.156,271.968,419.952,271.968z"
   id="path470" />
	<path
   style="fill:#3A3847;"
   d="M243.972,239.972c-2.21,0-4-1.789-4-4v-23.997c0-2.21,1.789-3.999,4-3.999s4,1.789,4,3.999v23.997   C247.972,238.183,246.183,239.972,243.972,239.972z"
   id="path472" />
	<path
   style="fill:#3A3847;"
   d="M259.97,239.972c-2.21,0-3.999-1.789-3.999-4v-23.997c0-2.21,1.789-3.999,3.999-3.999   c2.211,0,4,1.789,4,3.999v23.997C263.97,238.183,262.181,239.972,259.97,239.972z"
   id="path474" />
	<path
   style="fill:#3A3847;"
   d="M259.97,215.975h-15.998c-2.21,0-4-1.789-4-4c0-2.21,1.789-3.999,4-3.999h15.998   c2.211,0,4,1.789,4,3.999C263.97,214.186,262.181,215.975,259.97,215.975z"
   id="path476" />
	<path
   style="fill:#3A3847;"
   d="M251.971,215.975c-2.21,0-4-1.789-4-4v-31.996c0-2.211,1.789-3.999,4-3.999s4,1.788,4,3.999v31.996   C255.971,214.186,254.182,215.975,251.971,215.975z"
   id="path478" />
	<path
   style="fill:#3A3847;"
   d="M251.971,71.992c-2.21,0-4-1.789-4-4V35.995c0-2.211,1.789-4,4-4s4,1.789,4,4v31.996   C255.971,70.202,254.182,71.992,251.971,71.992z"
   id="path480" />
	<path
   style="fill:#3A3847;"
   d="M251.971,183.979c-2.21,0-4-1.789-4-4c0-15.436,12.561-27.997,27.997-27.997   c2.21,0,3.999,1.789,3.999,4s-1.789,3.999-3.999,3.999c-11.03,0-19.998,8.972-19.998,19.998   C255.971,182.19,254.182,183.979,251.971,183.979z"
   id="path482" />
	<path
   style="fill:#3A3847;"
   d="M227.911,95.989c-2.21,0-3.999-1.789-3.999-4c0-2.21,1.789-3.999,3.999-3.999   c11.03,0,19.998-8.972,19.998-19.998c0-2.211,1.789-3.999,4-3.999s4,1.788,4,3.999C255.909,83.427,243.347,95.989,227.911,95.989z"
   id="path484" />
	<path
   style="fill:#3A3847;"
   d="M443.95,159.981c-2.211,0-3.999-1.788-3.999-3.999s1.788-4,3.999-4   c6.616,0,11.999-5.382,11.999-11.998c0-2.211,1.788-4,3.999-4s3.999,1.789,3.999,4C463.947,151.009,454.98,159.981,443.95,159.981z   "
   id="path486" />
	<path
   style="fill:#3A3847;"
   d="M459.948,143.983c-2.211,0-3.999-1.789-3.999-3.999c0-6.617-5.383-11.999-11.999-11.999   c-2.211,0-3.999-1.789-3.999-3.999c0-2.211,1.788-4,3.999-4c11.03,0,19.997,8.972,19.997,19.998   C463.947,142.194,462.159,143.983,459.948,143.983z"
   id="path488" />
	<path
   style="fill:#3A3847;"
   d="M443.95,159.981H275.97c-2.211,0-4-1.788-4-3.999s1.789-4,4-4h167.98c2.211,0,3.999,1.789,3.999,4   S446.16,159.981,443.95,159.981z"
   id="path490" />
	<path
   style="fill:#3A3847;"
   d="M443.95,127.985H59.993c-2.211,0-4-1.789-4-3.999c0-2.211,1.789-4,4-4h383.956   c2.211,0,3.999,1.789,3.999,4C447.949,126.196,446.16,127.985,443.95,127.985z"
   id="path492" />
	<path
   style="fill:#3A3847;"
   d="M43.995,111.987c-2.211,0-4-1.789-4-4c0-11.025,8.968-19.997,19.998-19.997c2.211,0,4,1.789,4,3.999   c0,2.211-1.789,4-4,4c-6.616,0-11.999,5.382-11.999,11.998C47.995,110.198,46.206,111.987,43.995,111.987z"
   id="path494" />
	<path
   style="fill:#3A3847;"
   d="M59.993,127.985c-11.03,0-19.998-8.972-19.998-19.998c0-2.21,1.789-3.999,4-3.999   c2.21,0,4,1.789,4,3.999c0,6.617,5.382,11.999,11.999,11.999c2.211,0,4,1.789,4,4C63.993,126.196,62.204,127.985,59.993,127.985z"
   id="path496" />
	<path
   style="fill:#3A3847;"
   d="M227.974,95.989H59.993c-2.211,0-4-1.789-4-4c0-2.21,1.789-3.999,4-3.999h167.98   c2.211,0,4,1.789,4,3.999C231.974,94.199,230.185,95.989,227.974,95.989z"
   id="path498" />
</g>
<g
   id="g502">
</g>
<g
   id="g504">
</g>
<g
   id="g506">
</g>
<g
   id="g508">
</g>
<g
   id="g510">
</g>
<g
   id="g512">
</g>
<g
   id="g514">
</g>
<g
   id="g516">
</g>
<g
   id="g518">
</g>
<g
   id="g520">
</g>
<g
   id="g522">
</g>
<g
   id="g524">
</g>
<g
   id="g526">
</g>
<g
   id="g528">
</g>
<g
   id="g530">
</g>
</svg>