<?xml version="1.0" encoding="iso-8859-1"?>
<!-- Generator: Adobe Illustrator 19.0.0, SVG Export Plug-In . SVG Version: 6.00 Build 0)  -->
<svg version="1.1" id="Capa_1" xmlns="http://www.w3.org/2000/svg" xmlns:xlink="http://www.w3.org/1999/xlink" x="0px" y="0px"
	 viewBox="0 0 363.6 363.6" style="enable-background:new 0 0 363.6 363.6;" xml:space="preserve">
<path style="fill:#4299BF;" d="M263.4,265.2c0,50.8-41.2,91.6-91.6,91.6l0,0c-50.8,0-91.6-41.2-91.6-91.6v-90
	c0-50.8,41.2-91.6,91.6-91.6l0,0c50.8,0,91.6,41.2,91.6,91.6V265.2z"/>
<path style="fill:#A1EDFF;" d="M190.6,162.4c0,10.4-8.4,19.2-19.2,19.2l0,0c-10.4,0-19.2-8.4-19.2-19.2v-22.8
	c0-10.4,8.4-19.2,19.2-19.2l0,0c10.4,0,19.2,8.4,19.2,19.2V162.4z"/>
<path style="fill:#000C1F;" d="M171.8,363.6c54,0,98.4-44,98.4-98.4v-90c0-51.6-40-94-90.4-98V59.6c0-1.2,0.8-10.8,21.2-10.8h61.6
	c8.4,0,15.6-2.4,20.4-7.2c4.8-4.4,7.2-10,7.2-16.8c0-12-9.6-24.8-26.8-24.8H97.8c-3.6,0-6.4,2.8-6.4,6.4s2.8,6.4,6.4,6.4h165.6
	c9.2,0,13.6,6,13.6,11.6c0,2-0.4,4.8-3.2,6.8c-2.4,2.4-6.4,3.6-11.6,3.6H201c-12.4,0-22,3.2-28,9.2c-6.4,6.4-6.4,14-6.4,14.8V76
	c-51.6,2.8-93.2,45.6-93.2,98v90C73.4,319.2,117.4,363.6,171.8,363.6z M257,175.2v25.2h-78.8v-13.2c10.8-2.8,19.2-12.8,19.2-24.8
	v-22.8c0-12-8-21.6-19.2-24.8V90.4C222.2,94,257,130.4,257,175.2z M171.8,127.2c6.8,0,12.4,5.6,12.4,12.4v22.8
	c0,6.8-5.6,12.4-12.4,12.4c-6.8,0-12.4-5.6-12.4-12.4v-22.8C159,132.8,164.6,127.2,171.8,127.2z M165,90.4v24.4
	c-10.8,3.2-19.2,12.8-19.2,24.8v22.8c0,12,8,22,19.2,24.8v13.2H86.6v-25.2C86.6,130.4,121,94,165,90.4z M86.6,265.2v-51.6H257v51.6
	c0,46.8-38,85.2-85.2,85.2S86.6,312,86.6,265.2z"/>
<g>
</g>
<g>
</g>
<g>
</g>
<g>
</g>
<g>
</g>
<g>
</g>
<g>
</g>
<g>
</g>
<g>
</g>
<g>
</g>
<g>
</g>
<g>
</g>
<g>
</g>
<g>
</g>
<g>
</g>
</svg>
